<mxfile host="65bd71144e">
    <diagram id="bNTt_QjGJE058D7d4vGZ" name="Page-1">
        <mxGraphModel dx="705" dy="398" grid="1" gridSize="10" guides="1" tooltips="1" connect="1" arrows="1" fold="1" page="1" pageScale="1" pageWidth="850" pageHeight="1100" math="0" shadow="0">
            <root>
                <mxCell id="0"/>
                <mxCell id="1" parent="0"/>
                <mxCell id="10" value="" style="curved=1;endArrow=classic;html=1;exitX=1;exitY=0.5;exitDx=0;exitDy=0;entryX=0;entryY=0.5;entryDx=0;entryDy=0;" edge="1" parent="1" source="7">
                    <mxGeometry width="50" height="50" relative="1" as="geometry">
                        <mxPoint x="370" y="90" as="sourcePoint"/>
                        <mxPoint x="200" y="160" as="targetPoint"/>
                        <Array as="points">
                            <mxPoint x="800" y="50"/>
                            <mxPoint x="-150" y="10"/>
                        </Array>
                    </mxGeometry>
                </mxCell>
                <mxCell id="26" value="" style="group" vertex="1" connectable="0" parent="1">
                    <mxGeometry x="210" y="80" width="80" height="40" as="geometry"/>
                </mxCell>
                <mxCell id="47" style="edgeStyle=none;html=1;exitX=1;exitY=0.25;exitDx=0;exitDy=0;" edge="1" parent="26" source="24" target="25">
                    <mxGeometry relative="1" as="geometry"/>
                </mxCell>
                <mxCell id="24" value="x" style="whiteSpace=wrap;html=1;aspect=fixed;" vertex="1" parent="26">
                    <mxGeometry width="40" height="40" as="geometry"/>
                </mxCell>
                <mxCell id="25" value="&amp;amp;&lt;sub&gt;y&lt;/sub&gt;" style="whiteSpace=wrap;html=1;aspect=fixed;" vertex="1" parent="26">
                    <mxGeometry x="40" width="40" height="40" as="geometry"/>
                </mxCell>
                <mxCell id="27" value="" style="group" vertex="1" connectable="0" parent="1">
                    <mxGeometry x="330" y="80" width="80" height="40" as="geometry"/>
                </mxCell>
                <mxCell id="28" value="y" style="whiteSpace=wrap;html=1;aspect=fixed;" vertex="1" parent="27">
                    <mxGeometry width="40" height="40" as="geometry"/>
                </mxCell>
                <mxCell id="29" value="&amp;amp;&lt;sub&gt;z&lt;/sub&gt;" style="whiteSpace=wrap;html=1;aspect=fixed;" vertex="1" parent="27">
                    <mxGeometry x="40" width="40" height="40" as="geometry"/>
                </mxCell>
                <mxCell id="30" style="edgeStyle=none;html=1;entryX=0;entryY=0.5;entryDx=0;entryDy=0;" edge="1" parent="1" source="25" target="28">
                    <mxGeometry relative="1" as="geometry"/>
                </mxCell>
                <mxCell id="31" value="" style="group" vertex="1" connectable="0" parent="1">
                    <mxGeometry x="450" y="80" width="80" height="40" as="geometry"/>
                </mxCell>
                <mxCell id="32" value="z" style="whiteSpace=wrap;html=1;aspect=fixed;" vertex="1" parent="31">
                    <mxGeometry width="40" height="40" as="geometry"/>
                </mxCell>
                <mxCell id="33" value="&amp;amp;&lt;sub&gt;x&lt;/sub&gt;" style="whiteSpace=wrap;html=1;aspect=fixed;" vertex="1" parent="31">
                    <mxGeometry x="40" width="40" height="40" as="geometry"/>
                </mxCell>
                <mxCell id="34" style="edgeStyle=none;html=1;entryX=0;entryY=0.5;entryDx=0;entryDy=0;" edge="1" parent="1" source="29" target="32">
                    <mxGeometry relative="1" as="geometry"/>
                </mxCell>
                <mxCell id="35" value="" style="curved=1;endArrow=classic;html=1;exitX=1;exitY=0.5;exitDx=0;exitDy=0;entryX=0;entryY=0.5;entryDx=0;entryDy=0;" edge="1" parent="1" source="33" target="24">
                    <mxGeometry width="50" height="50" relative="1" as="geometry">
                        <mxPoint x="400" y="90" as="sourcePoint"/>
                        <mxPoint x="190" y="190" as="targetPoint"/>
                        <Array as="points">
                            <mxPoint x="570" y="40"/>
                            <mxPoint x="160" y="30"/>
                        </Array>
                    </mxGeometry>
                </mxCell>
                <mxCell id="36" value="" style="group" vertex="1" connectable="0" parent="1">
                    <mxGeometry x="320" y="170" width="80" height="40" as="geometry"/>
                </mxCell>
                <mxCell id="37" value="g" style="whiteSpace=wrap;html=1;aspect=fixed;" vertex="1" parent="36">
                    <mxGeometry width="40" height="40" as="geometry"/>
                </mxCell>
                <mxCell id="38" value="null" style="whiteSpace=wrap;html=1;aspect=fixed;" vertex="1" parent="36">
                    <mxGeometry x="40" width="40" height="40" as="geometry"/>
                </mxCell>
                <mxCell id="42" value="itr" style="rhombus;whiteSpace=wrap;html=1;" vertex="1" parent="1">
                    <mxGeometry x="40" y="70" width="40" height="40" as="geometry"/>
                </mxCell>
                <mxCell id="44" value="" style="shape=link;html=1;entryX=0.5;entryY=0;entryDx=0;entryDy=0;exitX=0.5;exitY=1;exitDx=0;exitDy=0;" edge="1" parent="1" source="33">
                    <mxGeometry width="100" relative="1" as="geometry">
                        <mxPoint x="460" y="130" as="sourcePoint"/>
                        <mxPoint x="530" y="180" as="targetPoint"/>
                    </mxGeometry>
                </mxCell>
                <mxCell id="48" value="" style="group" vertex="1" connectable="0" parent="1">
                    <mxGeometry x="20" y="230" width="80" height="40" as="geometry"/>
                </mxCell>
                <mxCell id="49" value="tmp" style="whiteSpace=wrap;html=1;aspect=fixed;" vertex="1" parent="48">
                    <mxGeometry width="40" height="40" as="geometry"/>
                </mxCell>
                <mxCell id="50" value="&amp;amp;&lt;sub&gt;x&lt;/sub&gt;" style="whiteSpace=wrap;html=1;aspect=fixed;" vertex="1" parent="48">
                    <mxGeometry x="40" width="40" height="40" as="geometry"/>
                </mxCell>
                <mxCell id="51" value="" style="curved=1;endArrow=classic;html=1;exitX=1;exitY=0.5;exitDx=0;exitDy=0;entryX=0.5;entryY=0;entryDx=0;entryDy=0;" edge="1" parent="1" source="42" target="32">
                    <mxGeometry width="50" height="50" relative="1" as="geometry">
                        <mxPoint x="280" y="160" as="sourcePoint"/>
                        <mxPoint x="330" y="110" as="targetPoint"/>
                        <Array as="points">
                            <mxPoint x="160" y="50"/>
                            <mxPoint x="390" y="10"/>
                        </Array>
                    </mxGeometry>
                </mxCell>
                <mxCell id="60" style="edgeStyle=none;html=1;entryX=0;entryY=0.5;entryDx=0;entryDy=0;" edge="1" parent="1" source="50" target="28">
                    <mxGeometry relative="1" as="geometry"/>
                </mxCell>
            </root>
        </mxGraphModel>
    </diagram>
</mxfile>